<?xml version="1.0" encoding="utf-8"?>
<!-- Generator: Adobe Illustrator 26.3.1, SVG Export Plug-In . SVG Version: 6.00 Build 0)  -->
<svg version="1.1" id="Vrstva_1" xmlns="http://www.w3.org/2000/svg" xmlns:xlink="http://www.w3.org/1999/xlink" x="0px" y="0px"
	 viewBox="0 0 512 512" style="enable-background:new 0 0 512 512;" xml:space="preserve">
<style type="text/css">
	.st0{fill:#FFFFFF;}
</style>
<path id="ikona" class="st0" d="M20,136L20,136c0-19.3,15.7-35,35-35h402c19.3,0,35,15.7,35,35l0,0c0,19.3-15.7,35-35,35H55
	C35.7,171,20,155.3,20,136z"/>
<path id="ikona-2" class="st0" d="M20,256L20,256c0-19.3,15.7-35,35-35h402c19.3,0,35,15.7,35,35l0,0c0,19.3-15.7,35-35,35H55
	C35.7,291,20,275.3,20,256z"/>
<path id="ikona-3" class="st0" d="M20,376L20,376c0-19.3,15.7-35,35-35h402c19.3,0,35,15.7,35,35l0,0c0,19.3-15.7,35-35,35H55
	C35.7,411,20,395.3,20,376z"/>
</svg>
