<?xml version="1.0" encoding="UTF-8"?><svg id="Vrstva_1" xmlns="http://www.w3.org/2000/svg" viewBox="0 0 331.66 71"><defs><style>.cls-1{fill:#5f5e5e;}.cls-2{fill:#5bc5f2;}</style></defs><path class="cls-1" d="M318.03,70.32v-4.81c4.05-.38,7.02-2.91,7.02-6.45h0v-2.07c-1.78-.69-4.14-1.21-6.9-1.21h-.12v-4.4c2.75,.11,4.85,.59,6.9,1.24v-.75c0-4.12-2.42-6.41-6.9-6.6v-6.05h.29c4.54,0,7.94,1.21,10.07,3.39,2.24,2.19,3.28,5.41,3.28,9.38v18.01h-6.79v-3.8c-1.58,1.89-3.81,3.48-6.85,4.12Zm0-31.1v6.05c-.21,0-.42-.01-.63-.01-3.39,0-5.92,.75-8.69,1.9l-1.84-5.47c3.27-1.46,6.48-2.43,11.16-2.47h0Zm0,12.16v4.4c-4.42,.03-7.02,1.93-7.02,5.06v.11c0,2.93,2.59,4.6,5.92,4.6,.37,0,.74-.02,1.09-.05v4.81c-.94,.2-1.95,.31-3.05,.31-5.7,0-10.76-3.28-10.76-9.38v-.11c0-6.56,5.12-9.78,12.54-9.78,.44,0,.86,0,1.27,.03h0Zm-137.55,19.28v-5.72c.33,.03,.66,.05,1.01,.05,3.39,0,5.81-1.27,8.23-3.62l4.08,3.62c-2.88,3.45-6.85,5.69-12.43,5.69-.3,0-.6,0-.89-.02h0Zm0-13.38v-4.6h7.79c-.46-4.49-3.11-8-7.71-8h-.09v-5.69h.14c9.66,0,14.55,7.59,14.55,16.33,0,.63-.06,1.27-.11,1.96h-14.58Zm21.71-17.66h6.96v4.6c1.95-2.7,4.6-5.23,9.26-5.23,4.37,0,7.48,2.13,9.09,5.35,2.42-3.22,5.64-5.35,10.24-5.35,6.62,0,10.64,4.2,10.64,11.62v19.39h-6.96v-17.26c0-4.83-2.24-7.42-6.16-7.42s-6.5,2.65-6.5,7.53v17.14h-6.96v-17.31c0-4.72-2.3-7.36-6.16-7.36s-6.5,2.88-6.5,7.53v17.14h-6.96v-30.37h0Zm54.76-11.27h7.48v6.62h-7.48v-6.62h0Zm.29,11.27h6.96v30.37h-6.96v-30.37h0Zm16.05-11.62h6.96v25.08l12.6-13.46h8.46l-12.08,12.37,12.48,18.01h-8.17l-8.97-13.17-4.32,4.49v8.69h-6.96V28Zm-164.76,10.99h.03c9.32,0,16.16,7.07,16.16,15.76v.11c0,8.6-6.86,15.77-16.19,15.82v-6.1h.03c5.64,0,9.2-4.37,9.2-9.61h0v-.11c0-5.32-3.81-9.73-9.23-9.78v-6.1h0Zm71.95,0v5.69c-4.21,.04-7.17,3.31-7.79,8h7.79v4.6h-7.74c.69,4.57,3.74,7.28,7.74,7.66v5.72c-8.36-.42-14.7-6.68-14.7-15.74v-.12c0-8.64,6.09-15.74,14.7-15.82h0Zm-48.69-10.99h6.96v16.28c1.96-2.82,4.77-5.29,9.49-5.29,6.85,0,10.81,4.6,10.81,11.62v19.39h-6.96v-17.26c0-4.72-2.36-7.42-6.5-7.42s-6.85,2.82-6.85,7.53v17.14h-6.96V28Zm-39.46,26.98v-.11c0-8.68,6.89-15.86,16.19-15.88v6.1h-.09c-5.58,0-9.15,4.37-9.15,9.66v.11c0,5.28,3.84,9.71,9.23,9.72v6.1h-.09c-9.26,0-16.11-7.07-16.11-15.7h0Zm-20.68,15.64v-6.19c5.47,0,9.92-4.45,9.92-9.93s-4.45-9.92-9.92-9.92v-6.2c8.89,0,16.12,7.23,16.12,16.12s-7.23,16.12-16.12,16.12Zm0-32.24v6.2h0c-5.47,0-9.92,4.45-9.92,9.92s4.45,9.93,9.92,9.93h0v6.19h0c-8.89,0-16.12-7.23-16.12-16.12,0-.03,0-.05,0-.07h0V27.63h5.97l.12,14.26c2.75-2.2,6.24-3.52,10.03-3.52h0Z"/><path class="cls-2" d="M43.01,27.55h-4.61c-.28,0-.5,.22-.5,.5v15.14h.01v5.23c0,.46-.37,.83-.83,.83s-.83-.37-.83-.83V31.32c0-.3-.22-.55-.5-.55h-4.6c-.27,0-.5,.25-.5,.55v8.41c1.06,.99,1.95,2.16,2.64,3.46,.95,1.81,1.49,3.87,1.5,6.06,0,3.34-1.28,6.67-3.82,9.22-1.39,1.39-3.03,2.41-4.77,3.04v9.04c4.01-.83,7.82-2.8,10.93-5.91,4.25-4.25,6.37-9.82,6.37-15.38V28.05c0-.28-.22-.5-.5-.5h0Zm-16.8,9.44v-3h1.92c.49,0,.88,.39,.88,.88v3.54c-.86-.58-1.8-1.06-2.8-1.42Zm0,24.51c-3.16,1.14-6.68,1.03-9.76-.35-.04-.02-.07-.03-.11-.04-4.27-1.87-5.95-5.09-6.5-6.47-.02-.12-.05-.24-.1-.35-1.99-4.74-1.05-10.41,2.8-14.27,2.55-2.54,5.88-3.82,9.22-3.82v-7.81c0-.5-.42-.91-.93-.88-4.29,.18-8.53,1.63-12.13,4.33V1.51c0-.83-.68-1.51-1.51-1.51H1.51C.68,0,0,.68,0,1.51V49.18H0c-.02,4.59,1.4,9.17,4.27,13.03h.01c.41,.58,.86,1.11,1.28,1.58,.02,.02,.04,.05,.06,.07,.07,.07,.13,.15,.2,.21,.18,.19,.35,.38,.54,.56,.19,.19,.39,.38,.59,.56,.05,.05,.09,.09,.14,.13,.05,.04,.09,.08,.13,.12,.34,.3,.55,.48,.55,.48h0c5.24,4.41,12.07,5.95,18.43,4.63v-9.04h0Zm0-27.52v3c-.89-.32-1.83-.55-2.8-.68v-1.45c0-.49,.39-.88,.88-.88h1.92Z"/></svg>