<?xml version="1.0" encoding="UTF-8"?><svg id="Vrstva_1" xmlns="http://www.w3.org/2000/svg" viewBox="0 0 517.63 243.7"><defs><style>.cls-1{fill:#5bc4f1;}.cls-2{fill:#5e5e5d;}</style></defs><g><path class="cls-2" d="M99.34,184.28h.05c17.47,0,30.3,13.26,30.3,29.55v.22c0,16.12-12.86,29.57-30.35,29.65v-11.43h.05c10.57,0,17.25-8.19,17.25-18.01h0v-.21c0-9.98-7.15-18.24-17.31-18.33v-11.43Zm-30.35,29.98v-.21c0-16.27,12.91-29.73,30.35-29.76v11.43h-.16c-10.46,0-17.14,8.19-17.14,18.11v.22c0,9.9,7.2,18.19,17.31,18.22v11.43h-.16c-17.36,0-30.19-13.26-30.19-29.44Z"/><path class="cls-2" d="M142.95,163.69h13.05v30.52c3.67-5.28,8.95-9.92,17.79-9.92,12.83,0,20.27,8.63,20.27,21.78v36.34h-13.05v-32.35c0-8.84-4.42-13.91-12.18-13.91s-12.83,5.28-12.83,14.12v32.13h-13.05v-78.72Z"/><path class="cls-2" d="M234.22,184.29c.09,0,.18,0,.27,0,18.11,0,27.28,14.23,27.28,30.62,0,1.19-.11,2.37-.21,3.67h-27.34v-8.63h14.61c-.86-8.41-5.82-14.99-14.45-14.99h-.16v-10.67h0Zm0,48.65c.62,.06,1.25,.09,1.89,.09,6.36,0,10.89-2.37,15.42-6.79l7.66,6.79c-5.39,6.47-12.83,10.67-23.29,10.67-.56,0-1.12-.01-1.67-.04v-10.72Zm-27.55-18.78v-.22c0-16.19,11.41-29.5,27.55-29.65v10.67c-7.89,.08-13.43,6.2-14.61,14.99h14.61v8.63h-14.5c1.3,8.57,7.01,13.64,14.5,14.36v10.72c-15.68-.78-27.55-12.52-27.55-29.5Z"/><path class="cls-2" d="M274.92,185.47h13.05v8.63c3.66-5.07,8.62-9.81,17.36-9.81,8.19,0,14.02,3.99,17.04,10.03,4.53-6.04,10.57-10.03,19.19-10.03,12.4,0,19.95,7.87,19.95,21.78v36.34h-13.05v-32.35c0-9.06-4.21-13.91-11.54-13.91s-12.18,4.96-12.18,14.12v32.13h-13.05v-32.46c0-8.84-4.31-13.8-11.54-13.8s-12.18,5.39-12.18,14.12v32.13h-13.05v-56.93Z"/><path class="cls-2" d="M377.57,164.33h14.02v12.4h-14.02v-12.4h0Zm.54,21.14h13.05v56.93h-13.05v-56.93Z"/><polygon class="cls-2" points="408.19 163.69 421.23 163.69 421.23 210.7 444.85 185.47 460.7 185.47 438.06 208.65 461.46 242.4 446.14 242.4 429.32 217.71 421.23 226.12 421.23 242.4 408.19 242.4 408.19 163.69"/><path class="cls-2" d="M492.07,207.51c5.16,.21,9.09,1.1,12.94,2.32v-1.4c0-7.73-4.53-12.01-12.94-12.37v-11.35c.18,0,.36,0,.54,0,8.52,0,14.88,2.26,18.87,6.36,4.2,4.1,6.15,10.14,6.15,17.58v33.75h-12.72v-7.12c-2.97,3.54-7.13,6.52-12.83,7.73v-9.01c7.6-.72,13.16-5.45,13.16-12.09h0v-3.88c-3.34-1.29-7.77-2.26-12.94-2.26h-.22v-8.25Zm-25.88,18.5v-.21c0-12.29,9.6-18.33,23.51-18.33,.82,0,1.61,.02,2.37,.05v8.26c-8.28,.06-13.16,3.61-13.16,9.49v.22c0,5.5,4.85,8.63,11.11,8.63,.7,0,1.38-.03,2.05-.1v9.01c-1.76,.37-3.66,.58-5.71,.58-10.68,0-20.16-6.15-20.16-17.58h0Zm25.88-29.95c-.39-.02-.78-.03-1.19-.03-6.36,0-11.11,1.4-16.28,3.56l-3.45-10.24c6.13-2.75,12.16-4.56,20.92-4.63v11.35Z"/></g><path class="cls-2" d="M30.22,243.58c16.66,0,30.22-13.55,30.22-30.22s-13.56-30.22-30.22-30.22v11.62c10.26,0,18.6,8.35,18.6,18.6s-8.34,18.6-18.6,18.61v11.61Zm0-60.44c-7.1,0-13.64,2.47-18.8,6.59l-.22-26.74H0v50.23H0s0,.09,0,.14c0,16.66,13.56,30.22,30.22,30.22h0v-11.61h0c-10.26,0-18.6-8.35-18.6-18.61s8.34-18.6,18.6-18.6h0v-11.62h0Z"/><path class="cls-1" d="M309.99,59.73h-10c-.6,0-1.08,.48-1.08,1.08v32.82h.03v11.34c0,.99-.81,1.8-1.8,1.8s-1.8-.81-1.8-1.8v-37.08c0-.66-.48-1.19-1.08-1.19h-9.97c-.59,0-1.08,.54-1.08,1.19v18.23c2.3,2.15,4.23,4.69,5.71,7.5,2.07,3.93,3.24,8.4,3.24,13.14,0,7.23-2.77,14.46-8.28,19.98-3.02,3.02-6.56,5.22-10.34,6.59v19.6c8.68-1.81,16.96-6.08,23.7-12.82,9.21-9.21,13.82-21.28,13.82-33.35V60.82c0-.6-.49-1.08-1.08-1.08h0Zm-36.43,20.46v-6.51h4.15c1.05,0,1.91,.86,1.91,1.91v7.68c-1.88-1.26-3.91-2.29-6.07-3.08Zm0,53.15c-6.85,2.48-14.47,2.23-21.17-.76-.08-.04-.16-.06-.24-.09-9.26-4.04-12.9-11.04-14.09-14.03-.05-.26-.11-.51-.22-.76-4.31-10.27-2.28-22.56,6.08-30.93,5.52-5.52,12.75-8.28,19.99-8.28v-16.94c0-1.09-.92-1.96-2.01-1.92-9.29,.4-18.5,3.53-26.3,9.39V3.27c0-1.81-1.47-3.27-3.27-3.27h-12.31c-1.81,0-3.28,1.47-3.28,3.27V106.62h.01c-.03,9.94,3.04,19.89,9.26,28.25,0,0,.02,.02,.03,.03,.9,1.24,1.86,2.38,2.78,3.4,.05,.05,.09,.1,.14,.15,.15,.16,.29,.32,.43,.47,.38,.41,.76,.82,1.16,1.21,.42,.42,.85,.82,1.28,1.22,.1,.1,.2,.19,.29,.28,.1,.09,.19,.17,.29,.26,.73,.66,1.19,1.03,1.19,1.03h0c11.37,9.55,26.18,12.89,39.95,10.03v-19.6h0Zm0-59.67v6.51c-1.93-.7-3.96-1.2-6.07-1.47v-3.14c0-1.05,.85-1.91,1.91-1.91h4.16Z"/></svg>